PathFileType	4	(X/Y/Z)	OpenSim_Sub06_CSBaseline_Gyro.trc
DataRate	CameraRate	NumFrames	NumMarkers	Units	OrigDataRate	OrigDataStartFrame	OrigNumFrames
100	100	23	8	m	100	3185	8492
Frame#	Time	torso_imu_offset_imu	pelvis_imu_offset_imu	tibia_r_imu_offset_imu	femur_r_imu_offset_imu	tibia_l_imu_offset_imu	femur_l_imu_offset_imu	toes_r_imu_offset_imu	toes_l_imu_offset_imu
				X1	Y1	Z1	X2	Y2	Z2	X3	Y3	Z3	X4	Y4	Z4	X5	Y5	Z5	X6	Y6	Z6	X7	Y7	Z7	X8		Y8	Z8	

3185	31.84000000	0.06056502	0.08644058	0.08713485	-0.05767750	-0.20028471	0.08032977	0.24208510	0.36191150	-1.26602601	-0.04841475	-0.24282160	-0.40176978	0.36755902	-0.19348788	-1.46126459	0.31695066	-0.28762440	0.42147124	0.30411357	-0.66389979	-0.60709958	0.30600737	1.37066933	-0.83289048
3186	31.85000000	-0.00297276	0.13467903	0.05876423	-0.13231822	-0.19274308	0.05150014	0.29497688	0.36471206	-1.35722561	-0.13470475	-0.09765214	-0.28462389	0.38049558	-0.30564910	-1.00892628	0.07277374	-0.34628784	0.43107631	0.36886933	-0.78939214	-0.68979340	0.61793215	1.06645905	-0.51137972
3187	31.86000000	-0.06683965	0.16277100	0.03209707	-0.21144076	-0.16966007	0.01372934	0.30030787	0.35348532	-1.49125029	-0.17705908	0.05902741	-0.18588644	0.42038902	-0.37848116	-0.58382206	-0.16637331	-0.41508555	0.46872575	0.39183976	-0.90827622	-0.75488388	0.74492153	0.68175027	-0.17769813
3188	31.87000000	-0.12389501	0.20757214	-0.01451200	-0.27985731	-0.15023800	-0.01719826	0.21547451	0.31555703	-1.62676740	-0.16695330	0.19057247	-0.07940329	0.47637875	-0.42749542	-0.18712973	-0.32370984	-0.47049272	0.47106859	0.41958074	-1.06260889	-0.83732703	1.01656377	-0.00695020	0.26893687
3189	31.88000000	-0.20779059	0.24081701	-0.05698269	-0.32528336	-0.14379271	-0.04688802	0.10448148	0.31665903	-1.74509317	-0.13895936	0.28941837	0.00090261	0.44120533	-0.41979917	0.18966544	-0.36796654	-0.55225886	0.45542353	0.41188440	-1.23859479	-0.91002405	-1.18455312	-1.67591256	0.64670766
3190	31.89000000	-0.29174431	0.27900744	-0.08978191	-0.36163949	-0.17494118	-0.11139886	0.11315712	0.34067176	-1.84263587	-0.10183444	0.36262678	0.07688238	0.32499121	-0.42640305	0.59725238	-0.37059555	-0.65927365	0.44394862	0.41210328	-1.43818462	-0.99263229	-2.13370909	-2.88691282	0.46627035
3191	31.90000000	-0.37318162	0.32831153	-0.12448507	-0.41374695	-0.22907588	-0.17862039	0.10957883	0.32500645	-1.93636261	-0.06057235	0.42083129	0.15274232	0.22004304	-0.38052001	1.07969531	-0.33695605	-0.75408437	0.49434649	0.38487113	-1.67891683	-1.09236299	-1.70648064	-3.40381670	-0.44071249
3192	31.91000000	-0.43301715	0.35119737	-0.16591660	-0.43595334	-0.33281169	-0.23385578	0.04996226	0.28280463	-2.05398776	-0.06712699	0.51321936	0.22593543	0.08075350	0.06209296	1.66649398	-0.64627023	-0.89691852	0.58655566	0.37121283	-1.96034032	-1.19140798	-5.52071055	2.95264456	0.32631566
3193	31.92000000	-0.49773266	0.32459203	-0.20949886	-0.35670200	-0.43538678	-0.33309703	0.08642906	0.24752452	-2.14528734	-0.01970268	0.56579681	0.32450236	-0.16574507	0.49403010	2.12658017	-0.79107181	-1.20174242	0.58090954	0.36157270	-2.32913998	-1.29056478	6.58683346	3.16572088	0.13153434
3194	31.93000000	-0.57316034	0.26347694	-0.20649937	-0.24429216	-0.51768112	-0.52488808	0.11533821	0.19106307	-2.19974495	0.05768811	0.64255906	0.49483848	-0.68567577	0.11308630	2.14693079	-0.76455903	-1.25756952	0.48877386	0.33707123	-2.70894567	-1.42227992	2.57351430	-3.24555032	0.25005878
3195	31.94000000	-0.57577023	0.21707475	-0.14734097	-0.09952571	-0.51105208	-0.64288217	0.20020955	0.08741277	-2.25702398	0.22137874	0.73619640	0.74959026	-1.12508049	-0.20460159	1.47855132	-0.47008670	-0.63034987	0.47957112	0.33017364	-3.12098013	-1.57703316	-5.68102901	1.33892755	0.09313387
3196	31.95000000	-0.53657945	0.17643916	-0.10483692	0.05523022	-0.39950328	-0.64140203	0.32605223	-0.03407167	-2.33092940	0.23482378	0.87941883	0.92693960	-1.98073397	0.04612339	0.95218237	-0.46795860	0.12887703	0.57597771	0.24316557	-3.59714304	-1.69939275	2.53894222	-0.59734586	0.06001371
3197	31.96000000	-0.51416342	0.13321700	-0.10602551	0.16238043	-0.24868763	-0.42603835	0.25831549	-0.09616115	-2.41264994	0.15186923	1.11609321	1.21855462	-3.25333228	0.27734451	1.12326416	-1.11387087	0.30322537	0.63066576	0.34043521	-4.10777802	-1.85135962	-0.49120401	-0.29732727	0.24206376
3198	31.97000000	-0.49012154	0.13418067	-0.13870480	0.19397690	-0.12048572	-0.13411102	0.20446378	-0.04505358	-2.52792282	0.13265568	1.32720510	1.48618205	-4.26429633	-0.01454108	1.38203644	-1.72449989	0.16061027	1.07084539	0.55506059	-4.63329872	-2.01693145	-0.09514795	-0.05961814	0.17042912
3199	31.98000000	-0.56553100	0.11170276	-0.16340336	0.15651122	-0.05725645	0.04185512	0.18626455	0.09448136	-2.60914177	0.15199913	1.47565506	1.77282804	-3.76468026	-0.99242980	1.30031755	-1.54852466	-0.00681921	1.22044205	0.70252612	-5.19111337	-2.18061455	0.03288169	-0.03019891	0.08250458
3200	31.99000000	-0.65835523	0.09937887	-0.17617187	0.03713260	-0.01490937	0.11822309	0.18186555	0.18390123	-2.63744620	0.10960843	1.60695158	2.01606614	-1.78255342	-1.15986943	1.12882227	-1.10436692	-0.36244782	0.97971598	1.08654639	-5.66321612	-2.46317522	0.16138448	0.04307051	0.01650651
3201	32.00000000	-0.77278071	0.05851192	-0.16480663	-0.14497449	0.04601090	0.13031521	0.07783267	0.29245898	-2.64545948	0.01608761	1.74814760	2.20564236	0.08301683	-0.19160154	0.85557080	-0.73460142	-0.84936431	1.02270795	1.28241232	-5.92267843	-2.81854098	0.09294345	0.01727994	0.08619005
3202	32.01000000	-0.91282217	0.02343549	-0.15734011	-0.34552797	0.09322294	0.07415422	-0.27805670	0.36809830	-2.55678761	-0.09002942	1.79322285	2.42758091	0.66962870	0.12128353	0.63830459	-0.48481562	-1.36206268	1.14634947	1.52227166	-5.98135516	-3.21187839	0.02748264	0.06622113	0.16412775
3203	32.02000000	-1.03707839	-0.00622992	-0.15152015	-0.52849990	0.12416561	-0.00313086	-0.44469387	0.35872816	-2.38264935	-0.12897442	1.73250710	2.52836507	0.61833226	-0.12849848	0.59890225	-0.01784366	-1.25289388	1.12255147	1.57238280	-5.84289552	-3.48647252	-0.00935662	0.11260877	0.20185286
3204	32.03000000	-1.10982282	-0.04936803	-0.14944588	-0.67695280	0.17002401	-0.09035969	-0.38917126	0.27314040	-2.07491331	-0.19648222	1.68317517	2.52647245	0.97286523	-0.19615322	0.67272517	0.51913383	-0.71373821	0.98094913	1.43671915	-5.65808066	-3.65601036	-0.07745484	0.04893054	0.22873594
3205	32.04000000	-1.14563062	-0.10251725	-0.16406796	-0.80035348	0.21443523	-0.17423253	-0.26785332	0.06850101	-1.62635185	-0.06160461	1.59005375	2.12409225	1.18990693	-0.09716729	0.62217215	0.86526682	-0.29141991	0.89571451	1.44054277	-5.29576480	-3.72273891	-0.00253067	0.04171383	0.15382499
3206	32.05000000	-1.12947141	-0.14081749	-0.21099825	-0.87813581	0.24509974	-0.25065289	-0.23318639	-0.06338366	-1.22194471	0.05352956	1.51479340	2.01152638	0.67391388	-0.00886337	0.56864048	0.81599381	-0.22653184	1.01470922	1.44781881	-5.22886865	-3.80012746	0.06938671	-0.02909532	0.11093051
3207	32.06000000	-1.09167287	-0.18254473	-0.27335256	-0.89287446	0.25263954	-0.29846209	-0.49195290	-0.07577679	-0.89245301	0.04669834	1.37763020	1.93509736	-0.23940767	-0.00305351	0.49251641	0.63856037	-0.22425386	1.24420012	1.61969153	-4.86618254	-3.70085763	0.01402845	-0.10804289	0.07527117
